PathFileType	4	(X/Y/Z)	C:\Users\Graham\Documents\MATLAB\MOtoNMS_v2_2\MyData\ElaboratedData\S6\17-05-19\staticElaborations\Static1\Static1\\Static1.trc
DataRate	CameraRate	NumFrames	NumMarkers	Units	OrigDataRate	DataStartFrame
100	100	6	38	mm	100	2
Frame#	Time	V_Sacral			R_ASIS			L_ASIS			R_Knee_Lat			R_Knee_Med			R_Thigh_Upper			R_Thigh_Front			R_Thigh_Rear			L_Knee_Lat			L_Knee_Med			L_Thigh_Upper			L_Thigh_Front			L_Thigh_Rear			R_Ankle_Lat			R_Ankle_Med			R_Shank_Upper			R_Shank_Front			R_Shank_Rear			L_Ankle_Lat			L_Ankle_Med			L_Shank_Upper			L_Shank_Front			L_Shank_Rear			R_Heel			R_MTP1			R_MTP5			L_Heel			L_MTP1			L_MTP5			Clavicle			R_Acromium			L_Acromium			LAJC			RAJC			LHJC			RHJC			LKJC			RKJC		
		X1	Y1	Z1	X2	Y2	Z2	X3	Y3	Z3	X4	Y4	Z4	X5	Y5	Z5	X6	Y6	Z6	X7	Y7	Z7	X8	Y8	Z8	X9	Y9	Z9	X10	Y10	Z10	X11	Y11	Z11	X12	Y12	Z12	X13	Y13	Z13	X14	Y14	Z14	X15	Y15	Z15	X16	Y16	Z16	X17	Y17	Z17	X18	Y18	Z18	X19	Y19	Z19	X20	Y20	Z20	X21	Y21	Z21	X22	Y22	Z22	X23	Y23	Z23	X24	Y24	Z24	X25	Y25	Z25	X26	Y26	Z26	X27	Y27	Z27	X28	Y28	Z28	X29	Y29	Z29	X30	Y30	Z30	X31	Y31	Z31	X32	Y32	Z32	X33	Y33	Z33	X34	Y34	Z34	X35	Y35	Z35	X36	Y36	Z36	X37	Y37	Z37	X38	Y38	Z38	

2	0.010000	-130.349080	1062.963458	18.634729	78.960460	1061.557629	169.065704	82.499728	1058.820910	-98.436536	-34.296638	547.696927	209.502109	5.396532	539.429551	89.412723	90.264662	815.844159	199.559524	92.082451	703.440440	151.545927	48.682934	707.922901	214.106758	-19.230767	563.698755	-139.015696	9.263232	537.154338	-26.710703	110.610791	805.617779	-98.970528	90.604022	692.065939	-53.313806	66.850539	692.087442	-128.709095	-135.083627	102.724080	206.338075	-81.044688	111.259363	120.679363	-13.360762	366.371851	190.787588	-39.494505	251.123664	150.340639	-59.274733	256.676525	215.399094	-115.905531	97.778432	-153.813272	-68.480720	100.395115	-64.011933	-5.380340	373.924830	-129.777576	-23.714787	265.779975	-91.270774	-47.841834	268.233772	-159.273823	-187.816443	32.084473	146.297234	45.487193	61.229957	187.413106	-0.886332	55.011818	256.725040	-173.453445	50.247116	-99.898997	66.330956	53.812816	-112.627970	28.128863	48.366069	-200.926867	66.362917	1486.754848	20.901868	-32.108243	1540.485840	226.158175	-15.594741	1530.535020	-180.144481	-92.193126	99.086773	-108.912603	-108.064157	106.991722	163.508719	20.014234	968.900980	-60.156250	17.485175	970.856562	130.993187	-4.983767	550.426547	-82.863200	-14.450053	543.563239	149.457416	
3	0.020000	-130.318348	1062.976689	18.544219	79.045902	1061.571648	168.962380	82.543170	1058.803256	-98.525232	-34.291039	547.688947	209.436723	5.384632	539.412928	89.333368	90.250457	815.825281	199.447524	92.090539	703.422534	151.454280	48.669260	707.915418	214.018849	-19.240556	563.653667	-139.085430	9.264130	537.076476	-26.766944	110.656578	805.594726	-99.043426	90.680574	692.025921	-53.390911	66.905557	692.057944	-128.779372	-135.079333	102.723744	206.325979	-81.032350	111.254332	120.670531	-13.365763	366.376696	190.745582	-39.498509	251.118623	150.311378	-59.279231	256.681695	215.373524	-115.906673	97.776626	-153.813469	-68.478755	100.393753	-64.014256	-5.374486	373.916975	-129.819358	-23.708325	265.776547	-91.296323	-47.842578	268.222810	-159.296391	-187.818528	32.084661	146.300006	45.492541	61.230034	187.398400	-0.892464	55.008337	256.717792	-173.454243	50.250683	-99.900704	66.330521	53.808913	-112.631184	28.129236	48.367727	-200.926875	66.538305	1486.757208	20.766324	-31.953985	1540.507285	226.015461	-15.429024	1530.572972	-180.249681	-92.192714	99.085190	-108.913863	-108.055842	106.989038	163.498255	20.048541	968.897370	-60.227305	17.549483	970.875591	130.912490	-4.988213	550.365071	-82.926187	-14.453204	543.550938	149.385045	
4	0.030000	-130.289879	1062.990119	18.455504	79.128177	1061.584986	168.860380	82.585100	1058.786730	-98.612088	-34.286167	547.681363	209.372658	5.372607	539.396791	89.256101	90.236565	815.807647	199.338932	92.096691	703.405562	151.365251	48.655458	707.908797	213.933800	-19.250604	563.603132	-139.155087	9.258336	536.989147	-26.820767	110.704027	805.572496	-99.116712	90.763962	691.986534	-53.469729	66.965839	692.027975	-128.851275	-135.075230	102.723909	206.314309	-81.021346	111.249621	120.661923	-13.371605	366.381340	190.704314	-39.502735	251.114195	150.282682	-59.284155	256.687065	215.348471	-115.907875	97.774622	-153.813480	-68.477039	100.392502	-64.016503	-5.369803	373.909446	-129.860067	-23.702718	265.773196	-91.321003	-47.843644	268.212058	-159.318568	-187.820677	32.085649	146.302769	45.497472	61.230049	187.384769	-0.898246	55.005110	256.710783	-173.455089	50.254052	-99.902280	66.330255	53.805218	-112.634304	28.129510	48.369229	-200.927110	66.712857	1486.759703	20.633299	-31.799446	1540.529206	225.876101	-15.263348	1530.606736	-180.355531	-92.192457	99.083562	-108.914991	-108.048288	106.986765	163.488116	20.081192	968.894737	-60.297595	17.610953	970.894308	130.832216	-4.996134	550.296139	-82.987927	-14.456780	543.539077	149.314380	
5	0.040000	-130.264912	1063.004289	18.368532	79.204757	1061.596924	168.760006	82.625163	1058.771997	-98.696388	-34.283818	547.674504	209.310294	5.360019	539.381540	89.182391	90.222260	815.792111	199.236383	92.098487	703.389975	151.281064	48.640362	707.903631	213.853679	-19.261390	563.541935	-139.225081	9.240613	536.883669	-26.870673	110.754515	805.551572	-99.191810	90.859551	691.947830	-53.553092	67.035694	691.996944	-128.927551	-135.071569	102.724915	206.303315	-81.012581	111.245407	120.653661	-13.379278	366.385900	190.664165	-39.507605	251.110633	150.254823	-59.290059	256.692912	215.324083	-115.909057	97.772328	-153.813082	-68.475645	100.391581	-64.018770	-5.367351	373.902592	-129.899192	-23.698680	265.770157	-91.344210	-47.845308	268.201772	-159.340210	-187.822715	32.088097	146.305550	45.501658	61.229969	187.373000	-0.903470	55.002473	256.704217	-173.455922	50.257111	-99.903638	66.330358	53.801887	-112.637275	28.129582	48.370342	-200.927766	66.888463	1486.762327	20.504204	-31.641929	1540.552198	225.741915	-15.094457	1530.633854	-180.463011	-92.192351	99.081955	-108.915926	-108.042075	106.985161	163.478488	20.111360	968.893807	-60.367452	17.667203	970.912445	130.751760	-5.010388	550.212802	-83.047877	-14.461899	543.528022	149.246342	
6	0.050000	-130.244144	1063.019642	18.283036	79.273676	1061.606893	168.661549	82.663279	1058.759410	-98.777609	-34.285554	547.668648	209.249815	5.346290	539.367527	89.113247	90.206708	815.779201	199.141974	92.093978	703.375964	151.203519	48.622793	707.900224	213.780046	-19.273341	563.466371	-139.295537	9.207176	536.753956	-26.915491	110.808910	805.532159	-99.269854	90.970572	691.909539	-53.643352	67.118045	691.964312	-129.010409	-135.068555	102.726960	206.293160	-81.006641	111.241812	120.645847	-13.389536	366.390522	190.625344	-39.513543	251.108076	150.227981	-59.297350	256.699445	215.300431	-115.910179	97.769685	-153.812090	-68.474584	100.391159	-64.021121	-5.367992	373.896664	-129.936319	-23.696765	265.767622	-91.365491	-47.847887	268.192145	-159.361135	-187.824439	32.092441	146.308380	45.504858	61.229773	187.363647	-0.907979	55.000691	256.698226	-173.456669	50.259745	-99.904702	66.330935	53.799027	-112.640062	28.129381	48.370891	-200.928964	67.066619	1486.765029	20.380216	-31.479235	1540.576718	225.614283	-14.919773	1530.652748	-180.572671	-92.192381	99.080422	-108.916605	-108.037598	106.984386	163.469504	20.138548	968.895006	-60.437146	17.716391	970.929773	130.670699	-5.033083	550.110164	-83.105514	-14.469632	543.518087	149.181531	
7	0.060000	-130.227573	1063.036491	18.198528	79.333702	1061.614518	168.565329	82.699714	1058.748944	-98.855461	-34.292595	547.664007	209.191208	5.330774	539.355062	89.049144	90.189023	815.769043	199.057096	92.081840	703.363413	151.133844	48.601624	707.898550	213.713823	-19.286770	563.374727	-139.366193	9.156161	536.597344	-26.954485	110.867379	805.514137	-99.351496	91.097455	691.871089	-53.742078	67.213927	691.929674	-129.101217	-135.066343	102.730078	206.283907	-81.003728	111.238890	120.638567	-13.402815	366.395389	190.587904	-39.520923	251.106545	150.202272	-59.306259	256.706785	215.277519	-115.911232	97.766687	-153.810382	-68.473806	100.391328	-64.023581	-5.372292	373.891800	-129.971148	-23.697311	265.765735	-91.384577	-47.851706	268.183302	-159.381131	-187.825634	32.098840	146.311283	45.506936	61.229460	187.356976	-0.911689	54.999917	256.692856	-173.457248	50.261853	-99.905410	66.331979	53.796675	-112.642643	28.128879	48.370784	-200.930737	67.248221	1486.767701	20.262249	-31.309945	1540.603021	225.494051	-14.737675	1530.663018	-180.684411	-92.192519	99.079008	-108.916981	-108.035035	106.984484	163.461237	20.162698	968.898393	-60.506849	17.757386	970.946098	130.588878	-5.065304	549.986036	-83.160339	-14.480910	543.509534	149.120176	
